<svg xmlns="http://www.w3.org/2000/svg" viewBox="0 0 16 16">
  <title>elektron_fav</title>
  <path d="M8,16A8,8,0,1,0,0,8a8,8,0,0,0,8,8" transform="translate(0 0)" fill="red" />
  <path
    d="M7.35,8.59H3.87A1.71,1.71,0,0,1,5.68,7.06,1.56,1.56,0,0,1,7.35,8.59m-4.93.67a3.21,3.21,0,0,0,3.42,3.41,3.68,3.68,0,0,0,2.63-1L7.8,10.49a2.65,2.65,0,0,1-2,.86,1.86,1.86,0,0,1-2-1.67h5V9.26c0-2-1.16-3.46-3.19-3.46A3.24,3.24,0,0,0,2.42,9.26"
    transform="translate(0 0)" fill="#fff" />
  <rect x="9.34" y="3.33" width="4.24" height="1.12" fill="#fff" />
</svg>